<?xml version="1.0" encoding="iso-8859-1"?>
<!-- Generator: Adobe Illustrator 19.0.0, SVG Export Plug-In . SVG Version: 6.00 Build 0)  -->
<svg xmlns="http://www.w3.org/2000/svg" xmlns:xlink="http://www.w3.org/1999/xlink" version="1.1" id="Layer_1" x="0px" y="0px" viewBox="0 0 512.003 512.002" style="enable-background:new 0 0 512.003 512.002;" xml:space="preserve" width="512px" height="512px">
<g>
	<g>
		<path d="M415.958,95.881C384.74,37.549,326.873,1.731,261.167,0.067c-3.433-0.089-6.902-0.089-10.328,0    C185.129,1.731,127.262,37.549,96.045,95.881c-31.711,59.255-29.302,128.467,6.445,185.142l116.168,184.181l-8.06,13.635    c-3.989,6.748-4.054,15.23-0.169,22.039c3.885,6.809,11.121,11.125,18.96,11.125h53.228c7.839,0,15.074-4.316,18.96-11.125    c3.885-6.809,3.82-15.234-0.169-21.981l-8.06-13.664l116.168-184.195C445.259,224.362,447.669,155.135,415.958,95.881z     M372.588,257.734L256.001,442.578L139.414,257.734c-27.26-43.221-29.083-96.025-4.879-141.254    c23.709-44.305,67.602-71.509,117.415-72.771c1.346-0.034,2.696-0.051,4.051-0.051c1.355,0,2.705,0.017,4.056,0.051    c49.808,1.262,93.7,28.466,117.411,72.771C401.673,161.709,399.848,214.515,372.588,257.734z" fill="#D9FAF8"/>
	</g>
</g>
<g>
</g>
<g>
</g>
<g>
</g>
<g>
</g>
<g>
</g>
<g>
</g>
<g>
</g>
<g>
</g>
<g>
</g>
<g>
</g>
<g>
</g>
<g>
</g>
<g>
</g>
<g>
</g>
<g>
</g>
</svg>
