<?xml version="1.0" encoding="iso-8859-1"?>
<!-- Generator: Adobe Illustrator 18.0.0, SVG Export Plug-In . SVG Version: 6.00 Build 0)  -->
<!DOCTYPE svg PUBLIC "-//W3C//DTD SVG 1.1//EN" "http://www.w3.org/Graphics/SVG/1.1/DTD/svg11.dtd">
<svg xmlns="http://www.w3.org/2000/svg" xmlns:xlink="http://www.w3.org/1999/xlink" version="1.1" id="Capa_1" x="0px" y="0px" viewBox="0 0 424.086 424.086" style="enable-background:new 0 0 424.086 424.086;" xml:space="preserve" width="512px" height="512px">
<g>
	<g>
		<path d="M28.875,147.228c-7.257,0-13.16-5.903-13.16-13.16c0-7.256,5.903-13.158,13.16-13.158c7.256,0,13.158,5.902,13.158,13.158    C42.033,141.324,36.131,147.228,28.875,147.228z M28.875,129.909c-2.294,0-4.16,1.865-4.16,4.158c0,2.294,1.866,4.16,4.16,4.16    c2.293,0,4.158-1.866,4.158-4.16C33.033,131.774,31.168,129.909,28.875,129.909z" fill="#D9FAF8"/>
	</g>
	<path d="M424.086,200.927c0-13.51-10.99-24.5-24.5-24.5h-94.518c-0.852-9.541-4.478-17.358-10.821-23.276   c-16.389-15.292-46.164-13.232-58.876-12.348c-1.825,0.126-12.158,0.332-15.969,0.426c-23.191,0.573-45.094,1.11-80.972-19.711   c-53.277-30.919-95.84-19.309-104.193-16.527c-2.976-0.027-5.011,0.143-5.671,0.21C12.786,105.367,0,118.249,0,134.067   c0,15.549,12.354,28.259,27.762,28.847c40.557,19.937,47.51,86.194,48.373,96.913c0.031-0.038,0.315,2.735,0.664,3.375   c-0.768,1.566-1.211,3.319-1.211,5.178c0,2.954,1.097,5.651,2.896,7.726c0.808,5.772,1.464,11.398,2.014,17.387   c-3.033,2.17-4.909,5.695-4.909,9.601c0,4.603,2.68,8.674,6.632,10.611l0.488,5.719c0.198,2.328,2.146,4.117,4.483,4.117h9.551   c2.336,0,4.283-1.787,4.483-4.114c0,0,0.183-2.119,0.489-5.722c3.953-1.938,6.633-6.009,6.633-10.611c0-3.904-1.875-7.43-4.908-9.6   c0.548-5.985,1.204-11.61,2.013-17.388c1.799-2.074,2.896-4.772,2.896-7.726c0-0.973-0.131-1.913-0.354-2.818H391.68   c-0.225,0.904-0.353,1.846-0.353,2.818c0,2.954,1.098,5.651,2.896,7.726c0.808,5.772,1.464,11.398,2.014,17.387   c-3.033,2.17-4.909,5.695-4.909,9.601c0,4.603,2.68,8.674,6.632,10.611l0.488,5.719c0.198,2.328,2.147,4.117,4.483,4.117h9.551   c2.336,0,4.283-1.787,4.483-4.114c0,0,0.183-2.119,0.489-5.722c3.953-1.938,6.633-6.009,6.633-10.611c0-3.904-1.875-7.43-4.908-9.6   c0.548-5.985,1.204-11.61,2.013-17.388c1.798-2.074,2.896-4.772,2.896-7.726c0-1.631-0.336-3.184-0.937-4.599   c0.579-0.757,0.937-1.692,0.937-2.72V200.927z M399.586,185.427c8.547,0,15.5,6.953,15.5,15.5v43.684   c-17.585-9.865-56.849-12.811-80.279-12.811c-18.147,0-30.232,2.527-41.92,4.971c-11.759,2.459-23.918,5.002-42.772,5.002   s-31.013-2.543-42.771-5.002c-11.688-2.443-23.772-4.971-41.918-4.971c-23.402,0-62.617,2.942-80.191,12.803v-43.676   c0-8.547,6.953-15.5,15.5-15.5H399.586z M133.913,129.302c38.074,22.095,62.288,21.503,85.71,20.924   c3.757-0.092,14.215-0.296,16.37-0.444c11.547-0.801,38.584-2.674,52.114,9.949c4.551,4.247,7.158,9.74,7.92,16.696H100.734   c-0.23,0-0.459,0.011-0.688,0.018c-0.902-24.543-8.348-43.246-22.199-55.611c-5.782-5.161-12.069-8.667-18.164-11.041   C77.498,108.922,103.939,111.906,133.913,129.302z M9,134.067c0-10.959,8.916-19.875,19.875-19.875s19.875,8.916,19.875,19.875   c0,10.959-8.916,19.875-19.875,19.875S9,145.026,9,134.067z M76.234,200.927v13.242c-6.357-19.634-17.128-40.878-35.339-53.857   c9.936-4.569,16.854-14.61,16.854-26.244c0-6.519-2.174-12.538-5.831-17.376c6.596,1.954,13.717,5.282,20.006,10.919   c12.2,10.934,18.636,28.021,19.182,50.79C82.37,182.148,76.234,190.833,76.234,200.927z M96.901,305.879   c-2.098,0.273-3.722,1.973-3.9,4.081c-0.15,1.764-0.281,3.305-0.391,4.58h-1.286l-0.392-4.581c-0.18-2.108-1.803-3.807-3.9-4.08   c-1.394-0.183-2.444-1.38-2.444-2.786c0-1.244,0.797-2.326,1.982-2.692c2.021-0.623,3.336-2.571,3.158-4.679   c-0.457-5.404-0.985-10.465-1.62-15.523h7.72c-0.634,5.061-1.163,10.123-1.619,15.524c-0.178,2.107,1.136,4.054,3.156,4.678   c1.185,0.366,1.982,1.448,1.982,2.692C99.348,304.499,98.296,305.696,96.901,305.879z M96.529,271.198h-9.123   c-1.554,0-2.818-1.265-2.818-2.818c0-1.554,1.265-2.818,2.818-2.818h9.123c1.554,0,2.818,1.265,2.818,2.818   C99.348,269.934,98.083,271.198,96.529,271.198z M85.234,256.562v-0.316c0-0.992,3.621-5.551,21.337-9.724   c15.667-3.689,36.569-5.722,58.854-5.722c17.215,0,28.319,2.322,40.075,4.78c12.207,2.553,24.829,5.192,44.614,5.192   c19.784,0,32.407-2.64,44.613-5.192c11.758-2.458,22.862-4.78,40.078-4.78c22.291,0,43.208,2.032,58.899,5.723   c17.751,4.174,21.38,8.73,21.38,9.723v0.316H85.234z M412.64,305.879c-2.098,0.273-3.722,1.973-3.9,4.081   c-0.15,1.764-0.281,3.305-0.391,4.58h-1.286l-0.392-4.581c-0.18-2.108-1.803-3.807-3.9-4.08c-1.393-0.183-2.444-1.38-2.444-2.786   c0-1.244,0.797-2.326,1.982-2.692c2.022-0.623,3.336-2.571,3.158-4.679c-0.457-5.404-0.992-10.465-1.626-15.523h7.73   c-0.635,5.061-1.168,10.123-1.624,15.524c-0.178,2.107,1.136,4.054,3.156,4.678c1.186,0.366,1.983,1.448,1.983,2.692   C415.086,304.499,414.034,305.696,412.64,305.879z M412.268,271.198h-9.123c-1.554,0-2.818-1.265-2.818-2.818   c0-1.554,1.265-2.818,2.818-2.818h9.123c1.554,0,2.818,1.265,2.818,2.818C415.086,269.934,413.821,271.198,412.268,271.198z" fill="#D9FAF8"/>
</g>
<g>
</g>
<g>
</g>
<g>
</g>
<g>
</g>
<g>
</g>
<g>
</g>
<g>
</g>
<g>
</g>
<g>
</g>
<g>
</g>
<g>
</g>
<g>
</g>
<g>
</g>
<g>
</g>
<g>
</g>
</svg>
