<?xml version="1.0" encoding="iso-8859-1"?>
<svg xmlns="http://www.w3.org/2000/svg" xmlns:xlink="http://www.w3.org/1999/xlink" version="1.1" viewBox="0 0 463.009 463.009" enable-background="new 0 0 463.009 463.009" width="512px" height="512px">
  <g>
    <path d="m462.126,155.275c-1.947-3.654-6.487-5.039-10.146-3.091-47.605,25.376-130.025,40.526-220.474,40.526-90.451,0-172.872-15.15-220.477-40.527-3.656-1.948-8.197-0.565-10.146,3.09-1.948,3.655-0.565,8.198 3.09,10.146 8.43,4.494 17.901,8.672 28.234,12.526l23.965,111.835c0.622,2.899 2.893,5.16 5.794,5.769 0.514,0.107 1.029,0.16 1.541,0.16 2.379,0 4.655-1.135 6.083-3.114l65.516-90.866c11.245,1.449 22.808,2.647 34.628,3.579l55.169,102.456c1.308,2.429 3.845,3.944 6.604,3.944s5.296-1.515 6.604-3.944l55.169-102.456c11.82-0.932 23.383-2.13 34.628-3.579l65.516,90.866c1.428,1.979 3.704,3.114 6.083,3.114 0.512,0 1.027-0.053 1.541-0.16 2.901-0.609 5.172-2.87 5.794-5.769l23.965-111.835c10.332-3.854 19.802-8.031 28.232-12.524 3.653-1.949 5.036-6.491 3.087-10.146zm-394.825,114.848l-3.926-18.322c4.703,1.281 9.536,2.509 14.485,3.676l-10.559,14.646zm20.082-27.853c-9.649-2.137-18.887-4.507-27.564-7.066l-11.057-51.597c20.695,6.478 44.166,11.776 69.569,15.739l-30.948,42.924zm144.123,46.12l-9.013-16.738c3.006,0.033 6.016,0.057 9.013,0.057s6.007-0.026 9.014-0.059l-9.014,16.74zm17.167-31.881c-11.387,0.245-22.958,0.247-34.333,0.001l-26.931-50.014c14.423,0.798 29.157,1.213 44.097,1.213s29.674-0.415 44.097-1.214l-26.93,50.014zm147.038,13.614l-10.555-14.639c4.942-1.162 9.77-2.383 14.475-3.655l-3.92,18.294zm7.472-34.866c-8.69,2.534-17.931,4.883-27.554,7.012l-30.947-42.922c25.403-3.963 48.874-9.261 69.569-15.739l-11.068,51.649z" fill="#D9FAF8"/>
    <path d="m70.377,221.663c4.629,1.169 9.431,2.302 14.271,3.367 0.542,0.12 1.085,0.177 1.618,0.177 3.444,0 6.547-2.387 7.318-5.89 0.89-4.045-1.668-8.046-5.714-8.937-4.69-1.032-9.341-2.129-13.82-3.261-4.018-1.014-8.094,1.418-9.108,5.435-1.014,4.017 1.42,8.095 5.435,9.109z" fill="#D9FAF8"/>
    <path d="m216.006,232.096c-0.041,4.142 3.283,7.533 7.426,7.574 2.682,0.027 5.374,0.04 8.074,0.04 2.701,0 5.395-0.013 8.076-0.04 4.143-0.041 7.467-3.432 7.426-7.574-0.041-4.117-3.391-7.426-7.498-7.426-0.025,0-0.051,0-0.076,0-5.264,0.052-10.586,0.052-15.854,0-4.188-0.041-7.533,3.284-7.574,7.426z" fill="#D9FAF8"/>
    <path d="m371.154,218.962c0.781,3.491 3.878,5.864 7.313,5.864 0.542,0 1.093-0.059 1.645-0.183 4.587-1.026 9.146-2.116 13.55-3.24 4.013-1.024 6.437-5.107 5.413-9.121-1.024-4.014-5.117-6.435-9.121-5.413-4.262,1.087-8.675,2.142-13.117,3.136-4.044,0.904-6.588,4.914-5.683,8.957z" fill="#D9FAF8"/>
  </g>
</svg>
